# xmcd
#
# Track frame offsets: 
#        150
#        11099
#        25751
#        36816
#        45822
#        58358
#        72493
#        83593
#        90798
#        95903
#        103496
#        110558
#        120285
#        133999
#        156204
#        161907
#        172492
#        193318
#        203954
#        215971
#
# Disc length: 3046 seconds
#
# Revision: 0
# Processed by: cddbd v1.5.2PL0 Copyright (c) Steve Scherf et al.
# Submitted via: ExactAudioCopy v0.99pb5
#
DISCID=2d0be414
DTITLE=Elvis Presley  - FTD 77-1 - I'll Remember You - 02-03-1973
DYEAR=1900
DGENRE=
TTITLE0=See See Rider
TTITLE1=I Got A Woman\\Amen
TTITLE2=Until It's Time For You To Go
TTITLE3=You Don't Have To Say You Love Me
TTITLE4=Steamroller Blues
TTITLE5=You Gave Me A Mountain
TTITLE6=Fever
TTITLE7=Love Me
TTITLE8=Blue Suede Shoes
TTITLE9=Love Me Tender
TTITLE10=Johnny B Goode
TTITLE11=Hound Dog
TTITLE12=What Now My Love
TTITLE13=Suspicious Minds
TTITLE14=Introductions
TTITLE15=I Can't Stop Loving You
TTITLE16=American trilogy
TTITLE17=Can't Help Falling In Love
TTITLE18=Sweet Caroline
TTITLE19=I'll Remember You
EXTD=
EXTT0=
EXTT1=
EXTT2=
EXTT3=
EXTT4=
EXTT5=
EXTT6=
EXTT7=
EXTT8=
EXTT9=
EXTT10=
EXTT11=
EXTT12=
EXTT13=
EXTT14=
EXTT15=
EXTT16=
EXTT17=
EXTT18=
EXTT19=
PLAYORDER=
